# xmcd
#
# Track frame offsets:
#	150
#	16253
#	39099
#	57140
#	76569
#	94847
#	114497
#	136925
#	153392
#	170819
#
# Disc length: 2589 seconds
#
# Revision: 0
# Processed by: cddbd v1.5.2PL0 Copyright (c) Steve Scherf et al.
# Submitted via: EasyCDDAExtractor 2010.6.0.0
#
DISCID=6c0a1b0a
DTITLE=Kenne' Wayne
DYEAR=2006
DGENRE=Club
TTITLE0=Party On Da Weekend
TTITLE1=If The Shoe Was On The Other Foot
TTITLE2=Soul Blues
TTITLE3=Crazy About Your Lovin'
TTITLE4=Let's Dance
TTITLE5=Runnin' Around
TTITLE6=Time To Get Loose
TTITLE7=Good Ole Blues
TTITLE8=Get Down And Party
TTITLE9=Superstar
EXTD=
EXTT0=
EXTT1=
EXTT2=
EXTT3=
EXTT4=
EXTT5=
EXTT6=
EXTT7=
EXTT8=
EXTT9=
PLAYORDER=
